<?xml version="1.0" encoding="utf-8"?>
<!-- Generator: Adobe Illustrator 18.0.0, SVG Export Plug-In . SVG Version: 6.00 Build 0)  -->
<!DOCTYPE svg PUBLIC "-//W3C//DTD SVG 1.1//EN" "http://www.w3.org/Graphics/SVG/1.1/DTD/svg11.dtd">
<svg version="1.1" id="motiv" xmlns="http://www.w3.org/2000/svg" xmlns:xlink="http://www.w3.org/1999/xlink" x="0px" y="0px"
	 viewBox="0 0 1417 1417" style="enable-background:new 0 0 1417 1417;" xml:space="preserve">
<g id="background_1_">
	<defs>
		<rect id="SVGID_1_" x="0.1" y="0.3" width="1417" height="1417"/>
	</defs>
	<clipPath id="SVGID_2_">
		<use xlink:href="#SVGID_1_"  style="overflow:visible;"/>
	</clipPath>
	<rect id="dark_bg" x="-21.5" y="-21.2" style="clip-path:url(#SVGID_2_);fill:#0F1823;" width="1460" height="1460"/>
	
		<rect id="bright_bg" x="-6.5" y="-22.2" style="display:none;clip-path:url(#SVGID_2_);fill:#FFFFFF;stroke:#FFFFFF;stroke-miterlimit:10;" width="1460" height="1460"/>
	<g id="lines_dark" style="display:none;opacity:0.2;clip-path:url(#SVGID_2_);">
		<polyline style="display:inline;fill:none;stroke:#316A80;stroke-width:5;stroke-miterlimit:10;" points="28.7,528.7 -17.3,282 
			531.7,479.7 367.4,836 		"/>
		
			<line style="display:inline;fill:none;stroke:#0E4362;stroke-width:5;stroke-miterlimit:10;" x1="748.4" y1="631" x2="529.8" y2="478.5"/>
		<polyline style="display:inline;fill:none;stroke:#316A80;stroke-width:5;stroke-miterlimit:10;" points="277.7,246 574.7,371 
			669.4,285.3 710.7,315.3 575.7,367.6 		"/>
		<polyline style="display:inline;fill:none;stroke:#0E4362;stroke-width:5;stroke-miterlimit:10;" points="540.6,43.6 681.1,-19 
			669.4,285.3 274.7,243 		"/>
		<polyline style="display:inline;fill:none;stroke:#0E4362;stroke-width:5;stroke-miterlimit:10;" points="531,479.5 274.7,244 
			151.4,-20 		"/>
		<polyline style="display:inline;fill:none;stroke:#316A80;stroke-width:5;stroke-miterlimit:10;" points="367.4,836 801.7,855 
			890.7,358.6 710.7,315.3 730.4,476.6 		"/>
		
			<line style="display:inline;fill:none;stroke:#0C334E;stroke-width:5;stroke-miterlimit:10;" x1="154.4" y1="801.9" x2="-8.3" y2="892"/>
		
			<line style="display:inline;fill:none;stroke:#0C334E;stroke-width:5;stroke-miterlimit:10;" x1="154.4" y1="801.9" x2="28.7" y2="528.7"/>
		
			<line style="display:inline;fill:none;stroke:#316A80;stroke-width:5;stroke-miterlimit:10;" x1="945.7" y1="772.3" x2="838.6" y2="568.1"/>
		<polyline style="display:inline;fill:none;stroke:#316A80;stroke-width:5;stroke-miterlimit:10;" points="367.4,836 175.7,462.7 
			274.7,244 		"/>
		<polyline style="display:inline;fill:none;stroke:#0E4362;stroke-width:5;stroke-miterlimit:10;" points="753.4,631 367.4,836 
			151.4,799.9 		"/>
		<polyline style="display:inline;fill:none;stroke:#0C334E;stroke-width:5;stroke-miterlimit:10;" points="177.7,462.7 28.7,528 
			367.4,836 		"/>
		
			<line style="display:inline;fill:none;stroke:#316A80;stroke-width:5;stroke-miterlimit:10;" x1="28.7" y1="528.7" x2="-17.3" y2="572"/>
		
			<line style="display:inline;fill:none;stroke:#0E4362;stroke-width:5;stroke-miterlimit:10;" x1="358.7" y1="909.3" x2="367.4" y2="836"/>
		
			<line style="display:inline;fill:none;stroke:#0E4362;stroke-width:5;stroke-miterlimit:10;" x1="358.7" y1="909.3" x2="510.7" y2="1054"/>
		<polyline style="display:inline;fill:none;stroke:#0C334E;stroke-width:5;stroke-miterlimit:10;" points="358.7,909.3 325.7,1163 
			-8.3,1388 		"/>
		<polyline style="display:inline;fill:none;stroke:#316A80;stroke-width:5;stroke-miterlimit:10;" points="367.4,836 510.7,1054 
			564.1,1132.7 325.7,1163 		"/>
		
			<line style="display:inline;fill:none;stroke:#0E4362;stroke-width:5;stroke-miterlimit:10;" x1="879.5" y1="888" x2="564.1" y2="1132.7"/>
		<polyline style="display:inline;fill:none;stroke:#0C334E;stroke-width:5;stroke-miterlimit:10;" points="879.1,884.3 
			828.8,1253.4 649.8,1409.4 		"/>
		<line style="display:inline;fill:#04232F;" x1="970.4" y1="980.3" x2="879.1" y2="884.3"/>
		
			<line style="display:inline;fill:none;stroke:#0E4362;stroke-width:5;stroke-miterlimit:10;" x1="828.1" y1="1253.6" x2="970.4" y2="980.3"/>
		<polyline style="display:inline;fill:none;stroke:#0E4362;stroke-width:5;stroke-miterlimit:10;" points="970.4,980.3 
			1218.7,1191.1 1471.7,1218 		"/>
		<polyline style="display:inline;fill:none;stroke:#0E4362;stroke-width:5;stroke-miterlimit:10;" points="879.1,884.3 
			981.1,880.3 1221.1,1192 		"/>
		<polyline style="display:inline;fill:none;stroke:#0E4362;stroke-width:5;stroke-miterlimit:10;" points="879.1,884.3 801.7,855 
			945.7,772.3 981.1,880.3 1073.2,603.7 876.1,503.6 		"/>
		
			<line style="display:inline;fill:#D9D9D9;stroke:#0C334E;stroke-width:5;stroke-miterlimit:10;" x1="958.5" y1="526" x2="945.7" y2="772.3"/>
		
			<line style="display:inline;fill:none;stroke:#0E4362;stroke-width:5;stroke-miterlimit:10;" x1="1073.2" y1="605" x2="945.7" y2="772.3"/>
		<polyline style="display:inline;fill:none;stroke:#316A80;stroke-width:5;stroke-miterlimit:10;" points="851,477 1067,421 
			1073.2,605 1256.7,760.7 1471.7,698.5 		"/>
		<polyline style="display:inline;fill:none;stroke:#0C334E;stroke-width:5;stroke-miterlimit:10;" points="1073.2,605 1221.1,1192 
			1118.3,1471 		"/>
		
			<line style="display:inline;fill:none;stroke:#0C334E;stroke-width:5;stroke-miterlimit:10;" x1="1065.5" y1="422.5" x2="1460.7" y2="339"/>
		
			<line style="display:inline;fill:none;stroke:#0C334E;stroke-width:5;stroke-miterlimit:10;" x1="358.7" y1="909.3" x2="81.2" y2="1327.7"/>
		
			<line style="display:inline;fill:none;stroke:#0C334E;stroke-width:5;stroke-miterlimit:10;" x1="1257.7" y1="760.7" x2="1221.1" y2="1192"/>
		
			<line style="display:inline;fill:none;stroke:#0C334E;stroke-width:5;stroke-miterlimit:10;" x1="151.4" y1="799.9" x2="86.7" y2="1322.7"/>
		
			<line style="display:inline;fill:none;stroke:#0C334E;stroke-width:5;stroke-miterlimit:10;" x1="828.1" y1="1253.6" x2="1221.1" y2="1192"/>
		
			<line style="display:inline;fill:none;stroke:#0C334E;stroke-width:5;stroke-miterlimit:10;" x1="564.1" y1="1132.7" x2="828.1" y2="1253.6"/>
		<polyline style="display:inline;fill:none;stroke:#0E4362;stroke-width:5;stroke-miterlimit:10;" points="669.4,285.3 540.6,43.6 
			325.7,-19 		"/>
		
			<line style="display:inline;fill:none;stroke:#0E4362;stroke-width:5;stroke-miterlimit:10;" x1="274.7" y1="244" x2="540.6" y2="43.6"/>
		<polyline style="display:inline;fill:none;stroke:#0E4362;stroke-width:5;stroke-miterlimit:10;" points="1065.5,422.5 
			978.1,146.1 681.1,-19 		"/>
		
			<line style="display:inline;fill:none;stroke:#316A80;stroke-width:5;stroke-miterlimit:10;" x1="710.7" y1="315.3" x2="978.1" y2="146.1"/>
		
			<line style="display:inline;fill:none;stroke:#316A80;stroke-width:5;stroke-miterlimit:10;" x1="978.1" y1="146.1" x2="907.8" y2="-20"/>
		<polyline style="display:inline;fill:none;stroke:#0C334E;stroke-width:5;stroke-miterlimit:10;" points="978.1,146.1 1492.8,320 
			1257.7,760.7 		"/>
		
			<line style="display:inline;fill:none;stroke:#0C334E;stroke-width:5;stroke-miterlimit:10;" x1="564.1" y1="1144.3" x2="649.8" y2="1426"/>
		
			<line style="display:inline;fill:none;stroke:#316A80;stroke-width:5;stroke-miterlimit:10;" x1="1257.7" y1="760.7" x2="1348.7" y2="367"/>
		
			<line style="display:inline;opacity:0.6;fill:none;stroke:#316A80;stroke-width:5;stroke-miterlimit:10;" x1="-13.3" y1="280" x2="274.7" y2="243"/>
		<polyline style="display:inline;fill:none;stroke:#316A80;stroke-width:5;stroke-miterlimit:10;" points="945.7,772.3 
			879.1,884.3 970.4,980.3 		"/>
	</g>
	<g id="circles_dark" style="display:none;clip-path:url(#SVGID_2_);">
		<circle style="display:inline;fill:#04232F;" cx="976.5" cy="146.1" r="11.7"/>
		<circle style="display:inline;fill:#04232F;" cx="176.2" cy="462.7" r="11.7"/>
		<circle style="display:inline;fill:#04232F;" cx="219.2" cy="366" r="11.7"/>
		<circle style="display:inline;fill:#04232F;" cx="27.2" cy="528.7" r="11.7"/>
		<circle style="display:inline;fill:#04232F;" cx="324.2" cy="1163" r="11.7"/>
		<circle style="display:inline;fill:#04232F;" cx="826.5" cy="1253.6" r="11.7"/>
		<circle style="display:inline;fill:#04232F;" cx="1219.5" cy="1192" r="11.7"/>
		<circle style="display:inline;fill:#04232F;" cx="1256.2" cy="760.7" r="11.7"/>
		<circle style="display:inline;fill:#04232F;" cx="85.2" cy="1322.7" r="11.7"/>
		<circle style="display:inline;fill:#04232F;" cx="152.8" cy="801.9" r="11.7"/>
		<circle style="display:inline;fill:#04232F;" cx="539.1" cy="43.6" r="11.7"/>
		<circle style="display:inline;fill:#04232F;" cx="1347.2" cy="367" r="11.7"/>
	</g>
</g>
<g id="senseven_dark">
	<g>
		<path style="fill:#34809C;" d="M294.3,1263.4c-6.1,0-17-3-18.2-18.5l4.4-0.2c1,12.1,8.8,14.4,14,14.4c9.3,0,14.7-7.5,14.7-13.9
			c0-5.2-2.4-8.6-15.8-12.1c-7.5-2-14.6-6.1-14.6-15c0-11.6,9.4-16,15.9-16c9.9,0,16.1,7.2,16.6,16l-4.4,0.2
			c-0.3-6.6-4.8-11.9-12.1-11.9c-5.2,0-11.6,3.5-11.6,11.5c0,6.6,5.2,9.4,11.4,10.9c15.7,4.1,19.1,9.2,19.1,16.3
			C313.5,1253.6,306.5,1263.4,294.3,1263.4z"/>
		<polygon style="fill:#34809C;" points="415.9,1232.8 398.1,1232.8 398.1,1257.3 423.5,1257.3 423.5,1261.6 393.8,1261.6 
			393.8,1203.1 420.4,1203.1 420.4,1207.4 398.1,1207.4 398.1,1228.5 415.9,1228.5 		"/>
		<polygon style="fill:#34809C;" points="548.4,1251.6 548.4,1203.1 552.7,1203.1 552.7,1263.5 510.2,1213 510.2,1261.6 
			505.8,1261.6 505.8,1201.1 		"/>
		<path style="fill:#34809C;" d="M649.7,1263.4c-6.1,0-17-3-18.2-18.5l4.4-0.2c1,12.1,8.8,14.4,14,14.4c9.3,0,14.7-7.5,14.7-13.9
			c0-5.2-2.4-8.6-15.8-12.1c-7.5-2-14.6-6.1-14.6-15c0-11.6,9.4-16,15.9-16c9.9,0,16.1,7.2,16.6,16l-4.4,0.2
			c-0.3-6.6-4.8-11.9-12.1-11.9c-5.2,0-11.6,3.5-11.6,11.5c0,6.6,5.2,9.4,11.4,10.9c15.7,4.1,19.1,9.2,19.1,16.3
			C668.8,1253.6,661.9,1263.4,649.7,1263.4z"/>
		<polygon style="fill:#34809C;" points="771.3,1232.8 753.5,1232.8 753.5,1257.3 778.9,1257.3 778.9,1261.6 749.2,1261.6 
			749.2,1203.1 775.8,1203.1 775.8,1207.4 753.5,1207.4 753.5,1228.5 771.3,1228.5 		"/>
	</g>
	<g>
		<polygon style="fill:#27526B;" points="856.3,1202.3 880.2,1253.4 904.2,1202.3 908.1,1204.1 880.2,1263.6 852.3,1204.1 		"/>
		<polygon style="fill:#27526B;" points="1005.2,1232.8 987.5,1232.8 987.5,1257.3 1012.8,1257.3 1012.8,1261.6 983.1,1261.6 
			983.1,1203.1 1009.8,1203.1 1009.8,1207.4 987.5,1207.4 987.5,1228.5 1005.2,1228.5 		"/>
		<polygon style="fill:#27526B;" points="1137.7,1251.6 1137.7,1203.1 1142.1,1203.1 1142.1,1263.5 1099.5,1213 1099.5,1261.6 
			1095.2,1261.6 1095.2,1201.1 		"/>
	</g>
</g>
<g id="senseven_bright" style="display:none;">
	<g style="display:inline;">
		<path style="fill:#316A80;" d="M294.3,1263.4c-6.1,0-17-3-18.2-18.5l4.4-0.2c1,12.1,8.8,14.4,14,14.4c9.3,0,14.7-7.5,14.7-13.9
			c0-5.2-2.4-8.6-15.8-12.1c-7.5-2-14.6-6.1-14.6-15c0-11.6,9.4-16,15.9-16c9.9,0,16.1,7.2,16.6,16l-4.4,0.2
			c-0.3-6.6-4.8-11.9-12.1-11.9c-5.2,0-11.6,3.5-11.6,11.5c0,6.6,5.2,9.4,11.4,10.9c15.7,4.1,19.1,9.2,19.1,16.3
			C313.5,1253.6,306.5,1263.4,294.3,1263.4z"/>
		<polygon style="fill:#316A80;" points="415.9,1232.8 398.1,1232.8 398.1,1257.3 423.5,1257.3 423.5,1261.6 393.8,1261.6 
			393.8,1203.1 420.4,1203.1 420.4,1207.4 398.1,1207.4 398.1,1228.5 415.9,1228.5 		"/>
		<polygon style="fill:#316A80;" points="548.4,1251.6 548.4,1203.1 552.7,1203.1 552.7,1263.5 510.2,1213 510.2,1261.6 
			505.8,1261.6 505.8,1201.1 		"/>
		<path style="fill:#316A80;" d="M649.7,1263.4c-6.1,0-17-3-18.2-18.5l4.4-0.2c1,12.1,8.8,14.4,14,14.4c9.3,0,14.7-7.5,14.7-13.9
			c0-5.2-2.4-8.6-15.8-12.1c-7.5-2-14.6-6.1-14.6-15c0-11.6,9.4-16,15.9-16c9.9,0,16.1,7.2,16.6,16l-4.4,0.2
			c-0.3-6.6-4.8-11.9-12.1-11.9c-5.2,0-11.6,3.5-11.6,11.5c0,6.6,5.2,9.4,11.4,10.9c15.7,4.1,19.1,9.2,19.1,16.3
			C668.8,1253.6,661.9,1263.4,649.7,1263.4z"/>
		<polygon style="fill:#316A80;" points="771.3,1232.8 753.5,1232.8 753.5,1257.3 778.9,1257.3 778.9,1261.6 749.2,1261.6 
			749.2,1203.1 775.8,1203.1 775.8,1207.4 753.5,1207.4 753.5,1228.5 771.3,1228.5 		"/>
	</g>
	<g style="display:inline;">
		<polygon style="fill:#66B0CC;" points="856.3,1202.3 880.2,1253.4 904.2,1202.3 908.1,1204.1 880.2,1263.6 852.3,1204.1 		"/>
		<polygon style="fill:#66B0CC;" points="1005.2,1232.8 987.5,1232.8 987.5,1257.3 1012.8,1257.3 1012.8,1261.6 983.1,1261.6 
			983.1,1203.1 1009.8,1203.1 1009.8,1207.4 987.5,1207.4 987.5,1228.5 1005.2,1228.5 		"/>
		<polygon style="fill:#66B0CC;" points="1137.7,1251.6 1137.7,1203.1 1142.1,1203.1 1142.1,1263.5 1099.5,1213 1099.5,1261.6 
			1095.2,1261.6 1095.2,1201.1 		"/>
	</g>
</g>
<g id="inside">
	<g>
		<defs>
			<polyline id="SVGID_3_" points="1143.6,210.9 1143.6,1140.9 273.6,1140.9 273.6,210.9 			"/>
		</defs>
		<clipPath id="SVGID_4_">
			<use xlink:href="#SVGID_3_"  style="overflow:visible;"/>
		</clipPath>
		<rect x="243.7" y="192.5" style="clip-path:url(#SVGID_4_);fill:#052A35;" width="930" height="1006.1"/>
		<g id="lines_1_" style="clip-path:url(#SVGID_4_);">
			<g id="dark">
				<line style="fill:none;stroke:#27526B;stroke-width:5;stroke-miterlimit:10;" x1="748.4" y1="631" x2="529.8" y2="478.5"/>
				<polyline style="fill:none;stroke:#27526B;stroke-width:5;stroke-miterlimit:10;" points="540.6,43.6 681.1,-19 669.4,285.3 
					274.7,243 				"/>
				<polyline style="fill:none;stroke:#27526B;stroke-width:5;stroke-miterlimit:10;" points="531,479.5 274.7,244 151.4,-20 				
					"/>
				<polyline style="fill:none;stroke:#27526B;stroke-width:5;stroke-miterlimit:10;" points="753.4,631 367.4,836 151.4,799.9 				
					"/>
				<polyline style="fill:none;stroke:#27526B;stroke-width:5;stroke-miterlimit:10;" points="801.7,855 890.7,358.6 710.7,315.3 
									"/>
				<line style="fill:none;stroke:#27526B;stroke-width:5;stroke-miterlimit:10;" x1="154.4" y1="801.9" x2="-8.3" y2="892"/>
				<line style="fill:none;stroke:#27526B;stroke-width:5;stroke-miterlimit:10;" x1="154.4" y1="801.9" x2="28.7" y2="528.7"/>
				<line style="fill:none;stroke:#35758D;stroke-width:5;stroke-miterlimit:10;" x1="28.7" y1="528.7" x2="-17.3" y2="572"/>
				<line style="fill:none;stroke:#27526B;stroke-width:5;stroke-miterlimit:10;" x1="358.7" y1="909.3" x2="367.4" y2="836"/>
				<line style="fill:none;stroke:#27526B;stroke-width:5;stroke-miterlimit:10;" x1="358.7" y1="909.3" x2="510.7" y2="1054"/>
				<line style="fill:none;stroke:#27526B;stroke-width:5;stroke-miterlimit:10;" x1="879.5" y1="888" x2="564.1" y2="1132.7"/>
				<line style="fill:#04232F;" x1="970.4" y1="980.3" x2="879.1" y2="884.3"/>
				<polyline style="fill:none;stroke:#27526B;stroke-width:5;stroke-miterlimit:10;" points="879.1,884.3 981.1,880.3 1221.1,1192 
									"/>
				<polyline style="fill:none;stroke:#27526B;stroke-width:5;stroke-miterlimit:10;" points="879.1,884.3 801.7,855 945.7,772.3 
					981.1,880.3 1073.2,603.7 876.1,503.6 				"/>
				<line style="fill:none;stroke:#27526B;stroke-width:5;stroke-miterlimit:10;" x1="1073.2" y1="605" x2="945.7" y2="772.3"/>
				<line style="fill:none;stroke:#27526B;stroke-width:5;stroke-miterlimit:10;" x1="1257.7" y1="760.7" x2="1221.1" y2="1192"/>
				<line style="fill:none;stroke:#27526B;stroke-width:5;stroke-miterlimit:10;" x1="151.4" y1="799.9" x2="86.7" y2="1322.7"/>
				<line style="fill:none;stroke:#27526B;stroke-width:5;stroke-miterlimit:10;" x1="828.1" y1="1253.6" x2="1221.1" y2="1192"/>
				<line style="fill:none;stroke:#27526B;stroke-width:5;stroke-miterlimit:10;" x1="564.1" y1="1132.7" x2="828.1" y2="1253.6"/>
				<polyline style="fill:none;stroke:#27526B;stroke-width:5;stroke-miterlimit:10;" points="669.4,285.3 540.6,43.6 325.7,-19 
									"/>
				<line style="fill:none;stroke:#27526B;stroke-width:5;stroke-miterlimit:10;" x1="274.7" y1="244" x2="540.6" y2="43.6"/>
				<polyline style="fill:none;stroke:#27526B;stroke-width:5;stroke-miterlimit:10;" points="1065.5,422.5 978.1,146.1 681.1,-19 
									"/>
				<line style="fill:none;stroke:#35758D;stroke-width:5;stroke-miterlimit:10;" x1="978.1" y1="146.1" x2="907.8" y2="-20"/>
				<polyline style="fill:none;stroke:#27526B;stroke-width:5;stroke-miterlimit:10;" points="978.1,146.1 1492.8,320 1257.7,760.7 
									"/>
				<line style="fill:none;stroke:#27526B;stroke-width:5;stroke-miterlimit:10;" x1="564.1" y1="1144.3" x2="649.8" y2="1426"/>
				<line style="fill:none;stroke:#35758D;stroke-width:5;stroke-miterlimit:10;" x1="1257.7" y1="760.7" x2="1348.7" y2="367"/>
				
					<line style="opacity:0.6;fill:none;stroke:#35758D;stroke-width:5;stroke-miterlimit:10;" x1="-13.3" y1="280" x2="274.7" y2="243"/>
			</g>
			<g id="darkest">
				<polyline style="fill:none;stroke:#20415E;stroke-width:5;stroke-miterlimit:10;" points="177.7,462.7 28.7,528 367.4,836 				
					"/>
				<polyline style="fill:none;stroke:#20415E;stroke-width:5;stroke-miterlimit:10;" points="358.7,909.3 325.7,1163 -8.3,1388 
									"/>
				<polyline style="fill:none;stroke:#20415E;stroke-width:5;stroke-miterlimit:10;" points="879.1,884.3 828.8,1253.4 
					649.8,1409.4 				"/>
				<line style="fill:#D9D9D9;stroke:#20415E;stroke-width:5;stroke-miterlimit:10;" x1="958.5" y1="526" x2="945.7" y2="772.3"/>
				<polyline style="fill:none;stroke:#20415E;stroke-width:5;stroke-miterlimit:10;" points="1073.2,605 1221.1,1192 1118.3,1471 
									"/>
				<line style="fill:none;stroke:#20415E;stroke-width:5;stroke-miterlimit:10;" x1="1065.5" y1="422.5" x2="1460.7" y2="339"/>
				<line style="fill:none;stroke:#20415E;stroke-width:5;stroke-miterlimit:10;" x1="358.7" y1="909.3" x2="81.2" y2="1327.7"/>
				<line style="fill:none;stroke:#20415E;stroke-width:5;stroke-miterlimit:10;" x1="275.7" y1="245" x2="572.7" y2="370"/>
			</g>
			<g id="bright">
				<polyline style="fill:none;stroke:#34809C;stroke-width:5;stroke-miterlimit:10;" points="28.7,528.7 -17.3,282 531.7,479.7 
					367.4,836 				"/>
				<polyline style="fill:none;stroke:#34809C;stroke-width:5;stroke-miterlimit:10;" points="669.4,285.3 710.7,315.3 575.7,367.6 
									"/>
				<line style="fill:none;stroke:#34809C;stroke-width:5;stroke-miterlimit:10;" x1="945.7" y1="772.3" x2="838.6" y2="568.1"/>
				<polyline style="fill:none;stroke:#34809C;stroke-width:5;stroke-miterlimit:10;" points="367.4,836 175.7,462.7 274.7,244 				
					"/>
				<polyline style="fill:none;stroke:#34809C;stroke-width:5;stroke-miterlimit:10;" points="367.4,836 510.7,1054 564.1,1132.7 
					325.7,1163 				"/>
				<line style="fill:none;stroke:#34809C;stroke-width:5;stroke-miterlimit:10;" x1="828.1" y1="1253.6" x2="970.4" y2="980.3"/>
				<polyline style="fill:none;stroke:#34809C;stroke-width:5;stroke-miterlimit:10;" points="970.4,980.3 1218.7,1191.1 
					1471.7,1218 				"/>
				<polyline style="fill:none;stroke:#34809C;stroke-width:5;stroke-miterlimit:10;" points="851,477 1067,421 1073.2,605 
					1256.7,760.7 1471.7,698.5 				"/>
				<line style="fill:none;stroke:#34809C;stroke-width:5;stroke-miterlimit:10;" x1="710.7" y1="315.3" x2="978.1" y2="146.1"/>
				<line style="fill:none;stroke:#34809C;stroke-width:5;stroke-miterlimit:10;" x1="363.4" y1="836" x2="797.7" y2="855"/>
				<polyline style="fill:none;stroke:#34809C;stroke-width:5;stroke-miterlimit:10;" points="945.7,772.3 879.1,884.3 970.4,980.3 
									"/>
				<line style="fill:none;stroke:#34809C;stroke-width:4;stroke-miterlimit:10;" x1="575.7" y1="369" x2="670.4" y2="283.3"/>
			</g>
		</g>
		<g id="circles" style="clip-path:url(#SVGID_4_);">
			<circle style="fill:#34809C;stroke:#35758D;stroke-miterlimit:10;" cx="945.7" cy="772.3" r="11.7"/>
			<circle style="fill:#34809C;stroke:#35758D;stroke-miterlimit:10;" cx="981.1" cy="880.3" r="11.7"/>
			<circle style="fill:#34809C;stroke:#35758D;stroke-miterlimit:10;" cx="879.1" cy="884.3" r="11.7"/>
			<circle style="fill:#34809C;stroke:#35758D;stroke-miterlimit:10;" cx="970.4" cy="980.3" r="11.7"/>
			<circle style="fill:#34809C;stroke:#35758D;stroke-miterlimit:10;" cx="801.7" cy="855" r="11.7"/>
			<circle style="fill:#34809C;stroke:#35758D;stroke-miterlimit:10;" cx="564.1" cy="1132.7" r="11.7"/>
			<circle style="fill:#34809C;stroke:#35758D;stroke-miterlimit:10;" cx="510.7" cy="1054" r="11.7"/>
			<circle style="fill:#34809C;stroke:#35758D;stroke-miterlimit:10;" cx="358.7" cy="909.3" r="11.7"/>
			<circle style="fill:#34809C;stroke:#35758D;stroke-miterlimit:10;" cx="367.4" cy="836" r="11.7"/>
			<circle style="fill:#34809C;stroke:#35758D;stroke-miterlimit:10;" cx="748.4" cy="631" r="11.7"/>
			<circle style="fill:#34809C;stroke:#35758D;stroke-miterlimit:10;" cx="530.7" cy="480.7" r="11.7"/>
			<circle style="fill:#34809C;stroke:#35758D;stroke-miterlimit:10;" cx="669.4" cy="285.3" r="11.7"/>
			<circle style="fill:#34809C;stroke:#35758D;stroke-miterlimit:10;" cx="710.7" cy="315.3" r="11.7"/>
			<circle style="fill:#34809C;stroke:#35758D;stroke-miterlimit:10;" cx="274.7" cy="244" r="11.7"/>
			<circle style="fill:#34809C;stroke:#35758D;stroke-miterlimit:10;" cx="1066" cy="421.3" r="11.7"/>
			<circle style="fill:#34809C;stroke:#35758D;stroke-miterlimit:10;" cx="945.7" cy="445.3" r="11.7"/>
			<circle style="fill:#34809C;stroke:#35758D;stroke-miterlimit:10;" cx="1073.4" cy="604.3" r="11.7"/>
			<circle style="fill:#34809C;stroke:#35758D;stroke-miterlimit:10;" cx="959.4" cy="546" r="11.7"/>
		</g>
	</g>
</g>
<g id="seven_dark" style="display:none;">
	<defs>
		<path id="SVGID_5_" d="M554.5,1008.7l276.7-527.5H529V351.1h461.3v130.1l-266.5,527.5C723.8,1008.7,564.4,1008.7,554.5,1008.7z"/>
	</defs>
	<clipPath id="SVGID_6_" style="display:inline;">
		<use xlink:href="#SVGID_5_"  style="overflow:visible;"/>
	</clipPath>
	<polygon style="display:inline;clip-path:url(#SVGID_6_);fill:#0E4362;" points="529,481.2 831.2,481.2 990.2,351.1 	"/>
	<polygon style="display:inline;clip-path:url(#SVGID_6_);fill:#767C9A;" points="564.6,1008.7 723.9,1008.7 765,614.4 	"/>
	<polygon style="display:inline;clip-path:url(#SVGID_6_);fill:#316A80;" points="554.5,1008.7 723.8,1008.7 753.4,629.5 	"/>
	<polygon style="display:inline;clip-path:url(#SVGID_6_);fill:#0E4362;" points="753.4,629.5 723.8,1008.7 958.1,544.9 	"/>
	<polygon style="display:inline;clip-path:url(#SVGID_6_);fill:#0C334E;" points="830.5,481.2 753.4,629.5 958.1,544.9 	"/>
	<polygon style="display:inline;clip-path:url(#SVGID_6_);fill:#316A80;" points="990.1,481.2 830.5,481.2 958.1,544.9 	"/>
	<polygon style="display:inline;clip-path:url(#SVGID_6_);fill:#0E4362;" points="990.1,351.1 831.5,481.2 990.1,481.2 	"/>
	<polygon style="display:inline;clip-path:url(#SVGID_6_);fill:#0C334E;" points="529,351.1 529,481.2 990.2,351.1 	"/>
</g>
<g id="seven_bright">
	<defs>
		<path id="SVGID_7_" d="M554.5,1008.7l276.7-527.5H529V351.1h461.3v130.1l-266.5,527.5C723.8,1008.7,564.4,1008.7,554.5,1008.7z"/>
	</defs>
	<clipPath id="SVGID_8_">
		<use xlink:href="#SVGID_7_"  style="overflow:visible;"/>
	</clipPath>
	<polygon style="clip-path:url(#SVGID_8_);fill:#BCD7DD;" points="529,481.2 831.2,481.2 990.2,351.1 	"/>
	<polygon style="clip-path:url(#SVGID_8_);fill:#767C9A;" points="564.6,1008.7 723.9,1008.7 765,614.4 	"/>
	<polygon style="clip-path:url(#SVGID_8_);fill:#34809C;" points="554.5,1008.7 723.8,1008.7 753.4,629.5 	"/>
	<polygon style="clip-path:url(#SVGID_8_);fill:#97C6CE;" points="753.4,629.5 723.8,1008.7 958.1,544.9 	"/>
	<polygon style="clip-path:url(#SVGID_8_);fill:#5293A5;" points="830.5,481.2 753.4,629.5 958.1,544.9 	"/>
	<polygon style="clip-path:url(#SVGID_8_);fill:#BCD7DD;" points="990.1,481.2 830.5,481.2 958.1,544.9 	"/>
	<polygon style="clip-path:url(#SVGID_8_);fill:#34809C;" points="990.1,351.1 831.5,481.2 990.1,461.2 	"/>
	<polygon style="clip-path:url(#SVGID_8_);fill:#BCD7DD;" points="990.2,481.2 990.2,441.2 831.2,481.2 	"/>
	<polygon style="clip-path:url(#SVGID_8_);fill:#5293A5;" points="529,351.1 529,481.2 990.2,351.1 	"/>
</g>
</svg>
