<?xml version="1.0" encoding="utf-8"?>
<!-- Generator: Adobe Illustrator 18.0.0, SVG Export Plug-In . SVG Version: 6.00 Build 0)  -->
<!DOCTYPE svg PUBLIC "-//W3C//DTD SVG 1.1//EN" "http://www.w3.org/Graphics/SVG/1.1/DTD/svg11.dtd">
<svg version="1.1" id="Ebene_1" xmlns="http://www.w3.org/2000/svg" xmlns:xlink="http://www.w3.org/1999/xlink" x="0px" y="0px"
	 viewBox="0 0 461.3 657.6" style="enable-background:new 0 0 461.3 657.6;" xml:space="preserve">
<g id="seven_bright">
	<defs>
		<path id="SVGID_3_" d="M25.5,657.6l276.7-527.5H0V0h461.3v130.1L194.8,657.6C194.8,657.6,35.4,657.6,25.5,657.6z"/>
	</defs>
	<clipPath id="SVGID_1_">
		<use xlink:href="#SVGID_3_"  style="overflow:visible;"/>
	</clipPath>
	<polygon style="clip-path:url(#SVGID_1_);fill:#BBD6DC;" points="0,130.1 302.2,130.1 461.3,0 	"/>
	<polygon style="clip-path:url(#SVGID_1_);fill:#757B98;" points="35.6,657.6 194.9,657.6 236,263.4 	"/>
	<polygon style="clip-path:url(#SVGID_1_);fill:#34809B;" points="25.5,657.6 194.8,657.6 224.4,278.4 	"/>
	<polygon style="clip-path:url(#SVGID_1_);fill:#96C5CE;" points="224.4,278.4 194.8,657.6 429.1,193.8 	"/>
	<polygon style="clip-path:url(#SVGID_1_);fill:#5292A4;" points="301.5,130.1 224.4,278.4 429.1,193.8 	"/>
	<polygon style="clip-path:url(#SVGID_1_);fill:#BBD6DC;" points="461.1,130.1 301.5,130.1 429.1,193.8 	"/>
	<polygon style="clip-path:url(#SVGID_1_);fill:#34809B;" points="461.1,0 302.5,130.1 461.1,110.1 	"/>
	<polygon style="clip-path:url(#SVGID_1_);fill:#BBD6DC;" points="461.3,130.1 461.3,90.1 302.2,130.1 	"/>
	<polygon style="clip-path:url(#SVGID_1_);fill:#5292A4;" points="0,0 0,130.1 461.3,0 	"/>
</g>
</svg>
